<?xml version="1.0" encoding="UTF-8" standalone="no"?>
<svg
   xmlns:dc="http://purl.org/dc/elements/1.1/"
   xmlns:cc="http://creativecommons.org/ns#"
   xmlns:rdf="http://www.w3.org/1999/02/22-rdf-syntax-ns#"
   xmlns:svg="http://www.w3.org/2000/svg"
   xmlns="http://www.w3.org/2000/svg"
   xmlns:sodipodi="http://sodipodi.sourceforge.net/DTD/sodipodi-0.dtd"
   xmlns:inkscape="http://www.inkscape.org/namespaces/inkscape"
   width="24"
   height="24"
   viewBox="0 0 24 24"
   fill="none"
   stroke="white"
   stroke-width="2"
   stroke-linecap="round"
   stroke-linejoin="round"
   class="ai ai-CircleMinus"
   version="1.1"
   id="svg875"
   sodipodi:docname="i-check-filled.svg"
   inkscape:version="1.0.1 (3bc2e813f5, 2020-09-07)">
  <metadata
     id="metadata881">
    <rdf:RDF>
      <cc:Work
         rdf:about="">
        <dc:format>image/svg+xml</dc:format>
        <dc:type
           rdf:resource="http://purl.org/dc/dcmitype/StillImage" />
        <dc:title></dc:title>
      </cc:Work>
    </rdf:RDF>
  </metadata>
  <defs
     id="defs879" />
  <sodipodi:namedview
     pagecolor="#939393"
     bordercolor="#666666"
     borderopacity="1"
     objecttolerance="10"
     gridtolerance="10"
     guidetolerance="10"
     inkscape:pageopacity="0"
     inkscape:pageshadow="2"
     inkscape:window-width="1920"
     inkscape:window-height="1017"
     id="namedview877"
     showgrid="false"
     inkscape:zoom="22.627417"
     inkscape:cx="0.90486486"
     inkscape:cy="8.8529897"
     inkscape:window-x="-8"
     inkscape:window-y="-8"
     inkscape:window-maximized="1"
     inkscape:current-layer="svg875" />
  <path
     id="path3913"
     style="color:#000000;font-style:normal;font-variant:normal;font-weight:normal;font-stretch:normal;font-size:medium;line-height:normal;font-family:sans-serif;font-variant-ligatures:normal;font-variant-position:normal;font-variant-caps:normal;font-variant-numeric:normal;font-variant-alternates:normal;font-variant-east-asian:normal;font-feature-settings:normal;font-variation-settings:normal;text-indent:0;text-align:start;text-decoration:none;text-decoration-line:none;text-decoration-style:solid;text-decoration-color:#000000;letter-spacing:normal;word-spacing:normal;text-transform:none;writing-mode:lr-tb;direction:ltr;text-orientation:mixed;dominant-baseline:auto;baseline-shift:baseline;text-anchor:start;white-space:normal;shape-padding:0;shape-margin:0;inline-size:0;clip-rule:nonzero;display:inline;overflow:visible;visibility:visible;isolation:auto;mix-blend-mode:normal;color-interpolation:sRGB;color-interpolation-filters:linearRGB;solid-color:#000000;solid-opacity:1;vector-effect:none;fill:#ffffff;fill-opacity:1;fill-rule:nonzero;stroke:none;stroke-width:2;stroke-linecap:butt;stroke-linejoin:miter;stroke-miterlimit:4;stroke-dasharray:none;stroke-dashoffset:0;stroke-opacity:1;color-rendering:auto;image-rendering:auto;shape-rendering:auto;text-rendering:auto;enable-background:accumulate;stop-color:#000000"
     d="M 12 1 C 5.9367124 1 1 5.9367124 1 12 C 1 18.063288 5.9367124 23 12 23 C 18.063288 23 23 18.063288 23 12 C 23 5.9367124 18.063288 1 12 1 z M 16.964844 6.53125 C 17.097612 6.538272 17.221612 6.5566934 17.332031 6.5839844 C 17.552867 6.6385658 17.721448 6.7325046 17.798828 6.8652344 C 17.87621 6.9979642 17.855806 7.1665228 17.708984 7.3554688 A 0.02012641 0.02012641 0 0 1 17.705078 7.359375 C 16.31861 8.4226495 14.813235 10.476347 13.550781 12.582031 C 12.288326 14.687714 11.268221 16.847076 10.851562 18.119141 A 0.02012641 0.02012641 0 0 1 10.832031 18.132812 L 8.8398438 18.132812 A 0.02012641 0.02012641 0 0 1 8.8222656 18.121094 C 8.5933313 17.59375 7.8968839 16.67213 7.2597656 15.886719 C 6.6226473 15.101309 6.0429688 14.449219 6.0429688 14.449219 A 0.02012641 0.02012641 0 0 1 6.046875 14.419922 L 8.1328125 13.029297 A 0.02012641 0.02012641 0 0 1 8.1621094 13.037109 C 8.1621094 13.037109 8.1622625 13.037816 8.1640625 13.041016 C 8.1658625 13.044236 8.168365 13.048488 8.171875 13.054688 C 8.178886 13.067118 8.189603 13.086255 8.203125 13.109375 C 8.2301695 13.155604 8.2700705 13.220538 8.3203125 13.298828 C 8.4207956 13.455415 8.5642396 13.662457 8.734375 13.861328 C 8.9045104 14.060199 9.1007873 14.250489 9.3085938 14.376953 C 9.5144461 14.502212 9.730237 14.561182 9.9414062 14.507812 C 10.255986 13.821682 11.234773 12.084583 12.359375 10.416016 C 12.92354 9.5789688 13.522337 8.7607252 14.091797 8.1054688 C 14.661258 7.4502123 15.199909 6.9568382 15.646484 6.7695312 C 16.087654 6.584248 16.566539 6.510183 16.964844 6.53125 z " />
</svg>
