<svg class="ai ai-CircleMinus" fill="none" stroke="white" stroke-linecap="round" stroke-linejoin="round" stroke-width="2" version="1.1" viewBox="0 0 24 24" xmlns="http://www.w3.org/2000/svg"><circle cx="12" cy="12" r="10"/><path d="m6.12 11.4c-0.467 0.747-0.656 1.03-1.26 1.87-0.0667 0.0928-0.0876 0.26-0.0307 0.342 0.683 0.989 2.06 2.8 2.06 2.8s1.29 1.79 1.93 2.65c0.252 0.335 0.286 0.232 0.508-0.0212 1.51-1.72 4.92-5.61 4.92-5.61s2.95-3.3 4.72-5.4c0.128-0.152 0.0518-0.261-0.138-0.448-0.596-0.591-1.14-1.11-1.69-1.68-0.114-0.116-0.167-0.263-0.379 0.0128-1.43 1.86-3.62 4.82-3.62 4.82s-2.47 3.41-3.78 5.03c-0.197 0.245-0.256 0.193-0.36 0.0212-0.504-0.836-0.77-1.29-1.18-2.06-0.367-0.692-0.714-1.38-1.16-2.33-0.137-0.238-0.331-0.235-0.544 0.0143z" display="none" fill="#fff" stroke="none"/><path d="m5.71 14.3s2.32 2.61 2.78 3.68h1.99c0.835-2.55 4.08-8.64 6.86-10.8 0.576-0.741-0.871-1.05-2.04-0.556-1.76 0.739-5.08 6.38-5.7 7.74-0.879 0.231-1.81-1.48-1.81-1.48z" fill="#fff" stroke-width=".0402"/></svg>
