<svg width="24" height="24" version="1.1" viewBox="0 0 6.35 6.35" xmlns="http://www.w3.org/2000/svg"><g transform="scale(.26458)" stroke="#fff" stroke-linecap="round" stroke-linejoin="round" stroke-width="2"><circle cx="12" cy="12" r="10" fill="none"/><path d="m13.279 13.038v4.7406c0.02406 0.18048-0.0361 0.37299-0.17446 0.49932-0.23462 0.23462-0.61363 0.23462-0.84825 0l-1.2092-1.2092c-0.13837-0.13837-0.19853-0.32486-0.17446-0.49932v-3.5314h-0.01805l-3.4652-4.4398c-0.20454-0.25869-0.15642-0.63769 0.10227-0.84223 0.1143-0.084219 0.24064-0.13235 0.37299-0.13235h8.4223c0.13235 0 0.25869 0.048131 0.37299 0.13235 0.25869 0.20454 0.30681 0.58355 0.10227 0.84223l-3.4652 4.4398z" fill="#fff" stroke="#fff" stroke-width="1.2032"/></g></svg>
