<svg width="24" height="24" version="1.1" viewBox="0 0 6.35 6.35" xmlns="http://www.w3.org/2000/svg"><path d="m3.1747 0.26484c-1.6042 3e-8 -2.9099 1.3057-2.9099 2.9099 0 1.6042 1.3057 2.9104 2.9099 2.9104 1.6042 0 2.9104-1.3062 2.9104-2.9104 0-1.6042-1.3062-2.9099-2.9104-2.9099zm-1.0935 1.5937h2.2283c0.073609 0 0.14178 0.028333 0.19379 0.066663a0.15919 0.15919 0 0 1 0.00362 0.00155c0.13536 0.10703 0.15966 0.30819 0.05271 0.44545v0.00207l-0.88677 1.1369v1.1932l-0.00206-0.021704c0.01265 0.094832-0.018169 0.19373-0.093534 0.26562-0.12285 0.12109-0.32485 0.12215-0.447 0l-0.3204-0.32039c-0.070865-0.070864-0.10329-0.16868-0.089917-0.26562l-0.00207 0.021704v-0.87281l-0.88676-1.1369c-0.10857-0.13731-0.083239-0.34002 0.05271-0.44752a0.15919 0.15919 0 0 1 0.00413-0.00155c0.052018-0.038326 0.11966-0.066662 0.19327-0.066662z" color="#000000" color-rendering="auto" dominant-baseline="auto" fill="#fff" image-rendering="auto" shape-rendering="auto" solid-color="#000000" stop-color="#000000" style="font-feature-settings:normal;font-variant-alternates:normal;font-variant-caps:normal;font-variant-east-asian:normal;font-variant-ligatures:normal;font-variant-numeric:normal;font-variant-position:normal;font-variation-settings:normal;inline-size:0;isolation:auto;mix-blend-mode:normal;shape-margin:0;shape-padding:0;text-decoration-color:#000000;text-decoration-line:none;text-decoration-style:solid;text-indent:0;text-orientation:mixed;text-transform:none;white-space:normal"/></svg>
