<?xml version="1.0" encoding="UTF-8" standalone="no"?>
<svg
   xmlns:dc="http://purl.org/dc/elements/1.1/"
   xmlns:cc="http://creativecommons.org/ns#"
   xmlns:rdf="http://www.w3.org/1999/02/22-rdf-syntax-ns#"
   xmlns:svg="http://www.w3.org/2000/svg"
   xmlns="http://www.w3.org/2000/svg"
   xmlns:sodipodi="http://sodipodi.sourceforge.net/DTD/sodipodi-0.dtd"
   xmlns:inkscape="http://www.inkscape.org/namespaces/inkscape"
   width="5.8208332mm"
   height="5.8208332mm"
   viewBox="0 0 5.8208332 5.8208332"
   version="1.1"
   id="svg8"
   inkscape:version="1.0.1 (3bc2e813f5, 2020-09-07)"
   sodipodi:docname="i-more-filled-dark.svg">
  <defs
     id="defs2" />
  <sodipodi:namedview
     id="base"
     pagecolor="#484842"
     bordercolor="#666666"
     borderopacity="1.0"
     inkscape:pageopacity="0"
     inkscape:pageshadow="2"
     inkscape:zoom="15.839192"
     inkscape:cx="14.059309"
     inkscape:cy="3.1108644"
     inkscape:document-units="mm"
     inkscape:current-layer="g1416"
     inkscape:document-rotation="0"
     showgrid="true"
     inkscape:window-width="1920"
     inkscape:window-height="1017"
     inkscape:window-x="-8"
     inkscape:window-y="-8"
     inkscape:window-maximized="1">
    <inkscape:grid
       type="xygrid"
       id="grid1433"
       originx="-84.402081"
       originy="-104.24583" />
  </sodipodi:namedview>
  <metadata
     id="metadata5">
    <rdf:RDF>
      <cc:Work
         rdf:about="">
        <dc:format>image/svg+xml</dc:format>
        <dc:type
           rdf:resource="http://purl.org/dc/dcmitype/StillImage" />
        <dc:title></dc:title>
      </cc:Work>
    </rdf:RDF>
  </metadata>
  <g
     inkscape:label="Layer 1"
     inkscape:groupmode="layer"
     id="layer1"
     transform="translate(-84.402083,-104.24583)">
    <g
       style="fill:none;stroke:#ffffff;stroke-width:2;stroke-linecap:round;stroke-linejoin:round"
       id="g1416"
       transform="matrix(0.26458333,0,0,0.26458333,84.1375,103.98125)">
      <path
         id="path1424"
         style="display:inline;opacity:0.998235;fill:#1a1a1a;stroke:none;stroke-width:20.6265;stroke-linecap:round;stroke-linejoin:round"
         inkscape:label="path"
         d="M 10.980469,1 A 9.9999997,9.9999997 0 0 0 1,11 9.9999997,9.9999997 0 0 0 11,21 9.9999997,9.9999997 0 0 0 21,11 9.9999997,9.9999997 0 0 0 11,1 9.9999997,9.9999997 0 0 0 10.980469,1 Z m 4.390625,8.4511719 a 1.511811,1.511811 0 0 1 1.511718,1.5117191 1.511811,1.511811 0 0 1 -1.511718,1.511718 1.511811,1.511811 0 0 1 -1.511719,-1.511718 1.511811,1.511811 0 0 1 1.511719,-1.5117191 z M 6.5957031,9.484375 A 1.511811,1.511811 0 0 1 8.1074219,10.996094 1.511811,1.511811 0 0 1 6.5957031,12.507812 1.511811,1.511811 0 0 1 5.0839844,10.996094 1.511811,1.511811 0 0 1 6.5957031,9.484375 Z m 4.4023439,0 a 1.511811,1.511811 0 0 1 1.511719,1.511719 1.511811,1.511811 0 0 1 -1.511719,1.511718 1.511811,1.511811 0 0 1 -1.5117189,-1.511718 1.511811,1.511811 0 0 1 1.5117189,-1.511719 z"
         transform="translate(0.99999875,0.99998741)" />
    </g>
  </g>
</svg>
