<?xml version="1.0" encoding="UTF-8" standalone="no"?>
<svg
   xmlns:dc="http://purl.org/dc/elements/1.1/"
   xmlns:cc="http://creativecommons.org/ns#"
   xmlns:rdf="http://www.w3.org/1999/02/22-rdf-syntax-ns#"
   xmlns:svg="http://www.w3.org/2000/svg"
   xmlns="http://www.w3.org/2000/svg"
   xmlns:sodipodi="http://sodipodi.sourceforge.net/DTD/sodipodi-0.dtd"
   xmlns:inkscape="http://www.inkscape.org/namespaces/inkscape"
   x="0px"
   y="0px"
   width="16"
   height="16"
   viewBox="0 0 172 172"
   style=" fill:#000000;"
   version="1.1"
   id="svg10"
   sodipodi:docname="i-pin-filled-grey.svg"
   inkscape:version="1.0.1 (3bc2e813f5, 2020-09-07)">
  <metadata
     id="metadata16">
    <rdf:RDF>
      <cc:Work
         rdf:about="">
        <dc:format>image/svg+xml</dc:format>
        <dc:type
           rdf:resource="http://purl.org/dc/dcmitype/StillImage" />
      </cc:Work>
    </rdf:RDF>
  </metadata>
  <defs
     id="defs14" />
  <sodipodi:namedview
     pagecolor="#ffffff"
     bordercolor="#666666"
     borderopacity="1"
     objecttolerance="10"
     gridtolerance="10"
     guidetolerance="10"
     inkscape:pageopacity="0"
     inkscape:pageshadow="2"
     inkscape:window-width="1920"
     inkscape:window-height="1017"
     id="namedview12"
     showgrid="false"
     inkscape:zoom="53.125"
     inkscape:cx="8"
     inkscape:cy="8"
     inkscape:window-x="-8"
     inkscape:window-y="-8"
     inkscape:window-maximized="1"
     inkscape:current-layer="g8" />
  <g
     fill="none"
     fill-rule="nonzero"
     stroke="none"
     stroke-width="1"
     stroke-linecap="butt"
     stroke-linejoin="miter"
     stroke-miterlimit="10"
     stroke-dasharray="none"
     stroke-dashoffset="0"
     font-family="none"
     font-weight="none"
     font-size="none"
     text-anchor="none"
     style="mix-blend-mode:normal"
     id="g8">
    <path
       d="m 47.95326,0 c 3.225,0 6.61125,1.89469 9.1375,5.16 l 28.4875,39.99 c 4.09844,-0.9675 8.25062,-1.3975 12.47,-1.3975 14.48562,0 28.13812,5.67063 38.3775,15.91 0.645,0.645 0.9675,1.45125 0.9675,2.365 0,0.91375 -0.3225,1.8275 -0.9675,2.4725 l -71.9175,71.9175 c -0.67188,0.67188 -1.47813,0.9675 -2.365,0.9675 -0.88688,0 -1.80063,-0.40312 -2.4725,-1.075 C 46.1392,122.79188 40.7642,103.28063 45.37326,84.8175 L 5.1682602,57.405 c -3.01,-2.24406 -4.93156001,-5.32125 -5.16000001,-8.385 -0.17469,-2.24406 0.645,-4.39406 2.15000001,-5.9125 L 42.57826,2.15 C 43.96232,0.73906 45.89732,0 47.95326,0 Z m 67.1875,95.46 56.115,70.95 c 1.08844,1.37063 1.02125,3.38625 -0.215,4.6225 -0.67188,0.67188 -1.58563,0.9675 -2.4725,0.9675 -0.7525,0 -1.51844,-0.25531 -2.15,-0.7525 l -70.8425,-56.115 z"
       id="path4"
       style="fill:#b3b3b3" />
  </g>
</svg>
