<svg width="24" height="24" version="1.1" viewBox="0 0 6.35 6.35" xmlns="http://www.w3.org/2000/svg"><g transform="translate(.298 .0661)" fill="#fff" stroke="#fff" stroke-linecap="round"><path d="m3.52 4.15c0.0702 0.0956 1.18 1.57 1.28 1.67" stroke-width=".811"/><path transform="scale(.265)" d="m8.66 0.656a8 8 0 0 0-8 8 8 8 0 0 0 8 8 8 8 0 0 0 8-8 8 8 0 0 0-8-8zm0 1.75a6.25 6.25 0 0 1 6.25 6.25 6.25 6.25 0 0 1-6.25 6.25 6.25 6.25 0 0 1-6.25-6.25 6.25 6.25 0 0 1 6.25-6.25z" stroke-linejoin="round" stroke-width="1.25"/></g></svg>
