<?xml version="1.0" encoding="UTF-8" standalone="no"?>
<svg
   xmlns:dc="http://purl.org/dc/elements/1.1/"
   xmlns:cc="http://creativecommons.org/ns#"
   xmlns:rdf="http://www.w3.org/1999/02/22-rdf-syntax-ns#"
   xmlns:svg="http://www.w3.org/2000/svg"
   xmlns="http://www.w3.org/2000/svg"
   xmlns:sodipodi="http://sodipodi.sourceforge.net/DTD/sodipodi-0.dtd"
   xmlns:inkscape="http://www.inkscape.org/namespaces/inkscape"
   width="24"
   height="24"
   version="1.1"
   viewBox="0 0 6.35 6.35"
   id="svg3928"
   sodipodi:docname="i-preview-filled.svg"
   inkscape:version="1.0.1 (3bc2e813f5, 2020-09-07)">
  <metadata
     id="metadata3934">
    <rdf:RDF>
      <cc:Work
         rdf:about="">
        <dc:format>image/svg+xml</dc:format>
        <dc:type
           rdf:resource="http://purl.org/dc/dcmitype/StillImage" />
        <dc:title></dc:title>
      </cc:Work>
    </rdf:RDF>
  </metadata>
  <defs
     id="defs3932" />
  <sodipodi:namedview
     pagecolor="#7b8282"
     bordercolor="#666666"
     borderopacity="1"
     objecttolerance="10"
     gridtolerance="10"
     guidetolerance="10"
     inkscape:pageopacity="0"
     inkscape:pageshadow="2"
     inkscape:window-width="1920"
     inkscape:window-height="1017"
     id="namedview3930"
     showgrid="false"
     inkscape:zoom="12.521683"
     inkscape:cx="-8.3495919"
     inkscape:cy="13.497493"
     inkscape:window-x="-8"
     inkscape:window-y="-8"
     inkscape:window-maximized="1"
     inkscape:current-layer="svg3928" />
  <g
     transform="translate(0.298,0.0661)"
     fill="#ffffff"
     stroke="#ffffff"
     stroke-linecap="round"
     id="g3926">
    <path
       d="M 3.52,4.15 C 3.5902,4.2456 4.7,5.72 4.8,5.82"
       stroke-width="0.811"
       id="path3922" />
    <path
       transform="scale(0.265)"
       d="m 8.66,0.656 a 8,8 0 0 0 -8,8 8,8 0 0 0 8,8 8,8 0 0 0 8,-8 8,8 0 0 0 -8,-8 z m 0,1.75 a 6.25,6.25 0 0 1 6.25,6.25 6.25,6.25 0 0 1 -6.25,6.25 6.25,6.25 0 0 1 -6.25,-6.25 6.25,6.25 0 0 1 6.25,-6.25 z"
       stroke-linejoin="round"
       stroke-width="1.25"
       id="path3924" />
  </g>
  <ellipse
     style="opacity:0.5;fill:#ffffff;stroke-width:0.368603;stroke-linecap:round;stroke-linejoin:round"
     id="path4497"
     cx="2.5778618"
     cy="2.3771265"
     rx="1.6904011"
     ry="1.616446" />
</svg>
