<svg width="24" height="24" version="1.1" viewBox="0 0 6.35 6.35" xmlns="http://www.w3.org/2000/svg"><g transform="matrix(.83 0 0 .83 -2.41 -1.3)" stroke-linecap="round"><path transform="matrix(.319 0 0 .319 2.9 1.57)" d="m-0.0234 0.0449v14.9h10.8v-12.6l-2.36-2.36z" fill="#ececec" stroke-width="10"/><path transform="matrix(.319 0 0 .319 2.9 1.57)" d="m8 0.0449v2.98h2.76v-0.615l-2.37-2.37z" opacity=".33" stroke-width="16.1"/><path transform="matrix(.319 0 0 .319 2.9 1.57)" d="m8.42 0.0684v2.34h2.34z" fill="#fff" stroke-width="8.97"/></g><g transform="matrix(1.11 0 0 1.11 -.668 -.688)" opacity=".5" stroke-linecap="round"><path transform="matrix(.239 0 0 .239 .603 .62)" d="m9 3.93v20.1h15v-16.1l-3.93-3.93z" fill="#e6e6e6" stroke-width="13.7"/><path transform="matrix(.239 0 0 .239 .603 .62)" d="m19.5 3.93v4.62h4.45v-0.686l-3.93-3.93z" opacity=".33" stroke-width="16.4"/><path transform="matrix(.239 0 0 .239 .603 .62)" d="m20 3.94v4h4v-0.0703l-3.93-3.93z" fill="#fff" stroke-width="15.2"/></g><path d="m1.77 3.4h-0.498v-1.92l-0.594 0.184v-0.405l1.04-0.372h0.0534z" fill="#1a1a1a" stroke-width=".265"/><path d="m5.38 5.55h-2.06v-0.409l0.974-1.04q0.201-0.219 0.296-0.382 0.0972-0.163 0.0972-0.31 0-0.201-0.101-0.314-0.101-0.116-0.289-0.116-0.203 0-0.32 0.141-0.116 0.138-0.116 0.366h-0.599q0-0.275 0.13-0.502 0.132-0.227 0.372-0.356 0.24-0.13 0.544-0.13 0.465 0 0.721 0.223 0.258 0.223 0.258 0.63 0 0.223-0.116 0.455t-0.397 0.54l-0.684 0.721h1.29z" fill="#1a1a1a" opacity=".5" stroke-width=".265"/></svg>
