<svg width="24" height="24" version="1.1" viewBox="0 0 6.35 6.35" xmlns="http://www.w3.org/2000/svg"><g stroke-linecap="round"><g transform="matrix(1.32 0 0 1.32 -2.76 -2.03)"><path transform="matrix(.201 0 0 .201 2.1 1.54)" d="m3.25 0.0977v23.9h17.8v-19.2l-4.68-4.68z" fill="#e6e6e6" stroke-width="16.3"/><path transform="matrix(.201 0 0 .201 2.1 1.54)" d="m15.8 0.0977v5.49h5.29v-0.816l-4.67-4.67z" opacity=".33" stroke-width="19.5"/><path transform="matrix(.201 0 0 .201 2.1 1.54)" d="m16.3 0.102v4.76h4.76v-0.084l-4.67-4.67z" fill="#fff" stroke-width="18.1"/></g><path d="m2.1 4.92s0.572 0.644 0.686 0.908h0.491c0.206-0.629 1.01-2.13 1.69-2.66 0.142-0.183-0.215-0.259-0.503-0.137-0.434 0.182-1.25 1.57-1.41 1.91-0.217 0.057-0.446-0.365-0.446-0.365z" fill="#008000" stroke="#fff" stroke-linejoin="round" stroke-width=".00991"/></g></svg>
